<?xml version="1.0" standalone="no"?><!DOCTYPE svg PUBLIC "-//W3C//DTD SVG 1.1//EN" "http://www.w3.org/Graphics/SVG/1.1/DTD/svg11.dtd"><svg t="1531896637265" class="icon" style="" viewBox="0 0 1024 1024" version="1.1" xmlns="http://www.w3.org/2000/svg" p-id="4521" xmlns:xlink="http://www.w3.org/1999/xlink" width="27" height="28"><defs><style type="text/css"></style></defs><path d="M192 960c-35.2 0-64-28.8-64-64v-96h128v96c0 35.2-28.8 64-64 64zM832 960c-35.2 0-64-28.8-64-64v-96h128v96c0 35.2-28.8 64-64 64z" p-id="4522"></path><path d="M928 544H96c-51.2 0-96 44.8-96 96v224h1024v-224c0-51.2-41.6-96-96-96zM192 768c-35.2 0-64-28.8-64-64s28.8-64 64-64 64 28.8 64 64-28.8 64-64 64z m640 0c-35.2 0-64-28.8-64-64s28.8-64 64-64 64 28.8 64 64-28.8 64-64 64z" p-id="4523"></path><path d="M230.4 556.8l28.8-147.2c6.4-25.6 16-57.6 35.2-57.6h438.4c19.2 0 28.8 32 35.2 57.6l28.8 147.2H896l-35.2-166.4c-16-76.8-54.4-134.4-128-134.4H294.4c-73.6 0-112 57.6-128 134.4l-35.2 166.4h99.2z" p-id="4524"></path><path d="M496 224h-128c-19.2 0-32-12.8-32-32V160c0-19.2 12.8-32 32-32h128v96zM656 224h-128V128h128c19.2 0 32 12.8 32 32v32c0 19.2-12.8 32-32 32z" fill="#323232;" p-id="4525"></path></svg>