<?xml version="1.0" standalone="no"?><!DOCTYPE svg PUBLIC "-//W3C//DTD SVG 1.1//EN" "http://www.w3.org/Graphics/SVG/1.1/DTD/svg11.dtd"><svg t="1535089102866" class="icon" style="" viewBox="0 0 1024 1024" version="1.1" xmlns="http://www.w3.org/2000/svg" p-id="1839" xmlns:xlink="http://www.w3.org/1999/xlink" width="25" height="35"><defs><style type="text/css"></style></defs><path d="M713.728 919.552H347.136c-32.768 0-60.416-26.624-60.416-60.416V233.472c0-32.768 26.624-60.416 60.416-60.416h366.592c32.768 0 60.416 26.624 60.416 60.416V860.16c0 32.768-27.648 59.392-60.416 59.392zM368.64 838.656h323.584v-583.68H368.64v583.68z" fill="#643336" p-id="1840"></path><path d="M381.952 250.88c-22.528 0-40.96-18.432-40.96-40.96V69.632c0-22.528 18.432-40.96 40.96-40.96s40.96 18.432 40.96 40.96v140.288c0 22.528-18.432 40.96-40.96 40.96zM666.624 220.16h-91.136c-22.528 0-40.96-18.432-40.96-40.96s18.432-40.96 40.96-40.96h91.136c22.528 0 40.96 18.432 40.96 40.96s-18.432 40.96-40.96 40.96zM290.816 487.424c-22.528 0-40.96-18.432-40.96-40.96V300.032c0-22.528 18.432-40.96 40.96-40.96s40.96 18.432 40.96 40.96v146.432c0 22.528-18.432 40.96-40.96 40.96zM733.184 839.68H327.68c-22.528 0-40.96-18.432-40.96-40.96s18.432-40.96 40.96-40.96h405.504c22.528 0 40.96 18.432 40.96 40.96s-18.432 40.96-40.96 40.96z" fill="#323232;" p-id="1841"></path></svg>