<?xml version="1.0" standalone="no"?><!DOCTYPE svg PUBLIC "-//W3C//DTD SVG 1.1//EN" "http://www.w3.org/Graphics/SVG/1.1/DTD/svg11.dtd"><svg t="1531896559821" class="icon" style="" viewBox="0 0 1024 1024" version="1.1" xmlns="http://www.w3.org/2000/svg" p-id="3010" xmlns:xlink="http://www.w3.org/1999/xlink" width="23" height="33"><defs><style type="text/css"></style></defs><path d="M809.386667 125.44H755.2c-43.093333-34.986667-92.586667-57.173333-152.746667-57.173333-48.213333 0-93.013333 14.08-130.986666 37.973333L368.213333 125.866667h-152.746666c-49.493333 0-76.373333 38.826667-76.373334 87.04v264.96c0 24.32 6.826667 46.08 20.053334 61.866666v362.24c0 29.866667 24.746667 54.186667 54.613333 54.186667H810.666667c29.866667 0 54.613333-24.32 54.613333-54.186667V539.733333c13.226667-15.786667 20.053333-37.546667 20.053333-61.866666V212.053333c0-47.786667-26.88-86.613333-75.946666-86.613333z m-205.653334-9.386667c88.746667 0 161.28 71.68 161.28 159.573334s-72.533333 159.573333-161.28 159.573333c-89.173333 0-161.28-71.68-161.28-159.573333-0.426667-87.893333 72.106667-159.573333 161.28-159.573334zM224.426667 200.533333h133.546666c11.093333 0 20.053333 11.946667 20.053334 26.88s-8.96 26.88-20.053334 26.88H224.426667c-11.093333 0-20.053333-11.946667-20.053334-26.88s8.96-26.88 20.053334-26.88z m-1.706667 107.52h98.133333c10.24 0 18.346667 11.946667 18.346667 26.88s-8.106667 26.88-18.346667 26.88h-98.133333c-10.24 0-18.346667-11.946667-18.346667-26.88s8.106667-26.88 18.346667-26.88z m289.28 550.4c-144.213333-64.426667-134.826667-259.413333-134.826667-259.413333 94.72-14.08 123.733333-29.013333 131.84-34.986667h5.973334c8.106667 5.546667 37.12 20.906667 131.413333 34.986667 0-0.426667 9.813333 194.986667-134.4 259.413333z m-23.04-581.973333c0-62.72 51.626667-113.92 115.2-113.92s114.773333 51.2 114.773333 113.92S667.306667 390.4 604.16 390.4c-63.573333-0.426667-115.2-51.2-115.2-113.92z m84.053333 386.56c2.986667 0.426667 4.266667 1.706667 4.266667 3.413333 0 0.853333-0.853333 2.133333-2.133333 3.413334l-28.586667 26.026666 6.826667 36.693334v1.28c0 0.853333-0.426667 2.133333-0.853334 2.56-0.426667 0.853333-1.28 0.853333-2.56 0.853333-0.853333 0-2.133333-0.426667-2.986666-0.853333l-35.413334-17.493334-35.413333 17.493334c-1.28 0.853333-2.133333 0.853333-2.986667 0.853333-0.853333 0-2.133333-0.426667-2.56-0.853333-0.426667-0.853333-0.853333-1.706667-0.853333-2.56v-1.28l6.826667-36.693334-28.586667-26.026666c-1.28-1.28-2.133333-2.56-2.133333-3.413334 0-1.706667 1.706667-2.986667 4.266666-3.413333l39.68-5.12 17.493334-33.28c0.853333-2.133333 2.133333-2.986667 3.84-2.986667s2.56 0.853333 3.84 2.986667l17.493333 33.28 40.533333 5.12z" fill="#323232;" p-id="3011"></path></svg>