<?xml version="1.0" standalone="no"?><!DOCTYPE svg PUBLIC "-//W3C//DTD SVG 1.1//EN" "http://www.w3.org/Graphics/SVG/1.1/DTD/svg11.dtd"><svg t="1535089116245" class="icon" style="" viewBox="0 0 1024 1024" version="1.1" xmlns="http://www.w3.org/2000/svg" p-id="1953" xmlns:xlink="http://www.w3.org/1999/xlink" width="25" height="32"><defs><style type="text/css"></style></defs><path d="M514.076571 278.073143v-44.185143c0-15.746286-17.602286-27.765714-33.350857-27.765714s-35.097143 12.020571-35.097143 27.765714v44.163429h-38.505142v-44.163429c0-15.746286-18.758857-28.457143-34.481143-28.457143-15.76 0-33.952 12.710857-33.952 28.457143v44.163429h-57.809143V162.956571h-18.966857V62.737143c0-15.673143-17.937143-28.444571-33.648-28.444572-15.765714 0-34.824 12.777143-34.824 28.444572v100.228571h-20.188572v124.605715h1.588572C131.289143 306.024 100.571429 349.106286 100.571429 399.088v188.104c0 38.4 18.220571 72.657143 46.382857 94.873143 0 0.234286-0.038857 0.529143-0.038857 0.741714v220.163429c0 9.098286 1.020571 17.965714 2.949714 26.497143C162.050286 983.411429 210.569143 1024 268.116571 1024h198.194286c57.515429 0 106.028571-40.594286 118.218286-94.533714a120.290286 120.290286 0 0 0 2.955428-26.497143V682.805714c0-0.212571-0.027429-0.507429-0.027428-0.741714 28.162286-22.214857 46.344-56.473143 46.344-94.873143V399.082286c0-66.067429-53.728-120.206857-119.724572-121.009143z m32.4 277.528H186.752V391.309714h359.724571v164.291429zM822.958857 112.570286c30.338286 31.908571 54.262857 68.290286 71.776 109.149714 17.512 40.858286 27.067429 83.918857 28.665143 129.182857 0.312 6.346286-1.926857 11.795429-6.723429 16.347429-4.067429 3.859429-8.756571 5.837714-14.069714 5.934857l-1.427428-0.036572c-5.865143-0.150857-10.84-2.376-14.931429-6.678857-3.864-4.064-5.845714-8.748571-5.940571-14.054857-1.430857-39.886857-9.867429-77.870857-25.312-113.947428-15.443429-36.08-36.524571-68.172571-63.246858-96.276572-26.722286-28.105143-57.718857-50.786286-92.992-68.048-35.270857-17.262857-72.806857-27.629714-112.603428-31.105143-5.299429-0.368-9.88-2.585143-13.744-6.649143-4.554286-4.790857-6.514286-10.348571-5.874286-16.668571 0.370286-5.294857 2.588571-9.872 6.656-13.731429 4.795429-4.552 10.357714-6.506286 16.684572-5.869714 45.253714 4.011429 87.827429 15.778286 127.721142 35.297143 39.893714 19.517714 75.012571 45.234286 105.362286 77.154286zM669.380571 257.353143c13.430857 14.125714 22.322286 30.626286 26.677715 49.507428 0.846857 3.824 0.728 7.563429-0.348572 11.218286a20.931429 20.931429 0 0 1-5.768 9.418286c-2.766857 2.626286-6.065143 4.363429-9.893714 5.205714-1.908571 0.428571-3.736 0.619429-5.48 0.576-5.860571-0.149714-10.877714-2.419429-15.048-6.805714-2.777143-2.921143-4.555429-6.177143-5.337143-9.765714-2.72-11.477714-8.056-21.398857-16.012571-29.765715-8.034286-8.449143-17.712-14.321143-29.035429-17.612571-3.936-1.206857-7.180571-3.149714-9.730286-5.832-5.633143-5.924571-7.36-12.859429-5.174857-20.803429 1.042286-3.776 2.945143-6.977143 5.712-9.602285 5.929143-5.627429 12.869714-7.352 20.821715-5.170286 18.891429 5.403429 35.091429 15.209143 48.598857 29.416l0.018285 0.016z" p-id="1954"></path><path d="M740.390857 190.528c18.686857 19.653714 33.620571 41.862857 44.797714 66.626286 11.177143 24.766857 17.757714 50.96 19.734858 78.580571 0.538286 6.746286-1.669714 12.470857-6.621715 17.171429-3.733714 3.544-8.148571 5.488-13.243428 5.833143-1.117714 0.133714-1.836571 0.190857-2.148572 0.173714-5.864-0.152-10.841143-2.377143-14.932571-6.68-3.626286-3.813714-5.612571-8.266286-5.957714-13.356572-1.642286-22.540571-7.038857-43.996571-16.187429-64.357714-9.150857-20.364571-21.328-38.541714-36.536-54.537143-15.210286-15.997714-32.756571-29.081143-52.642286-39.256-19.884571-10.173714-41.052571-16.657143-63.501714-19.454857-5.059429-0.595429-9.370286-2.764571-12.926857-6.505143-4.714286-4.957714-6.622857-10.786286-5.731429-17.488 0.596571-5.053714 2.768-9.357714 6.513143-12.912 4.963429-4.710857 10.797714-6.619429 17.504-5.726857 27.430857 3.308571 53.274286 11.218286 77.534857 23.722286 24.260571 12.508571 45.696 28.549714 64.302857 48.12l0.042286 0.046857z" fill="#323232;" p-id="1955"></path></svg>